<mxfile host="app.diagrams.net" modified="2024-03-11T13:52:23.674Z" agent="Mozilla/5.0 (Windows NT 10.0; Win64; x64) AppleWebKit/537.36 (KHTML, like Gecko) Chrome/123.0.0.0 Safari/537.36 OPR/109.0.0.0 (Edition developer)" etag="Ug-7wBkCRtSJYGS1lOWy" version="24.0.2" type="device">
  <diagram name="Seite-1" id="fWnW3hOuJFl1YckPMjlk">
    <mxGraphModel dx="3465" dy="1042" grid="1" gridSize="10" guides="1" tooltips="1" connect="1" arrows="1" fold="1" page="1" pageScale="1" pageWidth="827" pageHeight="1169" math="0" shadow="0">
      <root>
        <mxCell id="0" />
        <mxCell id="1" parent="0" />
        <mxCell id="XkvbFqVH8ZylM9C7yXK--107" value="" style="rounded=0;whiteSpace=wrap;html=1;" parent="1" vertex="1">
          <mxGeometry x="-1157" y="591" width="350" height="380" as="geometry" />
        </mxCell>
        <mxCell id="nqZKePSR_kzW_urHQub7-1" value="" style="rounded=0;whiteSpace=wrap;html=1;" parent="1" vertex="1">
          <mxGeometry x="-160" width="990" height="530" as="geometry" />
        </mxCell>
        <mxCell id="nqZKePSR_kzW_urHQub7-2" value="Generate" style="rounded=1;whiteSpace=wrap;html=1;" parent="1" vertex="1">
          <mxGeometry x="630" y="440" width="100" height="30" as="geometry" />
        </mxCell>
        <mxCell id="nqZKePSR_kzW_urHQub7-5" value="" style="rounded=0;whiteSpace=wrap;html=1;" parent="1" vertex="1">
          <mxGeometry x="240" y="50" width="490" height="380" as="geometry" />
        </mxCell>
        <mxCell id="nqZKePSR_kzW_urHQub7-6" value="&lt;h1&gt;Lorem Ipsum Dolor Sit Amet&lt;/h1&gt;&lt;div&gt;Lorem Ipsum&lt;/div&gt;&lt;div&gt;Lorem&lt;/div&gt;&lt;div&gt;Lorem&lt;/div&gt;&lt;div&gt;Ipsum&lt;/div&gt;&lt;div&gt;&lt;br&gt;&lt;/div&gt;&lt;div&gt;&lt;font size=&quot;1&quot; style=&quot;&quot;&gt;&lt;b style=&quot;font-size: 18px;&quot;&gt;Ipsum Dolor Sit Amet&lt;/b&gt;&lt;/font&gt;&lt;/div&gt;&lt;div style=&quot;font-size: 13px;&quot;&gt;&lt;font style=&quot;font-size: 13px;&quot;&gt;&lt;b style=&quot;&quot;&gt;&lt;br&gt;&lt;/b&gt;&lt;/font&gt;&lt;/div&gt;&lt;div style=&quot;&quot;&gt;&lt;font size=&quot;1&quot; style=&quot;&quot;&gt;&lt;b style=&quot;font-size: 24px;&quot;&gt;A B C D E&lt;/b&gt;&lt;/font&gt;&lt;/div&gt;&lt;div style=&quot;font-size: 13px;&quot;&gt;&lt;h1 style=&quot;padding: 0px 0px 20px; margin: 0px; outline: 0px; box-sizing: border-box; font-family: Arial, Helvetica, sans-serif; line-height: 1.2; color: rgb(37, 37, 40); background-color: rgb(255, 255, 255);&quot; class=&quot;article__title&quot;&gt;&lt;font style=&quot;font-size: 13px;&quot;&gt;• List item 1&lt;/font&gt;&lt;/h1&gt;&lt;h1 style=&quot;padding: 0px 0px 20px; margin: 0px; outline: 0px; box-sizing: border-box; font-family: Arial, Helvetica, sans-serif; line-height: 1.2; color: rgb(37, 37, 40); background-color: rgb(255, 255, 255);&quot; class=&quot;article__title&quot;&gt;&lt;font style=&quot;font-size: 13px;&quot;&gt;• List item 2&lt;/font&gt;&lt;/h1&gt;&lt;div style=&quot;&quot;&gt;&lt;font style=&quot;font-size: 13px;&quot;&gt;&lt;div style=&quot;border-color: var(--border-color);&quot;&gt;&lt;h1 style=&quot;border-color: var(--border-color); padding: 0px 0px 20px; margin: 0px; outline: 0px; box-sizing: border-box; font-family: Arial, Helvetica, sans-serif; line-height: 1.2; color: rgb(37, 37, 40); background-color: rgb(255, 255, 255);&quot; class=&quot;article__title&quot;&gt;&lt;font style=&quot;border-color: var(--border-color); font-size: 13px;&quot;&gt;• List item 3&lt;/font&gt;&lt;/h1&gt;&lt;div style=&quot;&quot;&gt;&lt;font style=&quot;border-color: var(--border-color); font-size: 13px;&quot;&gt;&lt;div style=&quot;border-color: var(--border-color);&quot;&gt;&lt;h1 style=&quot;border-color: var(--border-color); padding: 0px 0px 20px; margin: 0px; outline: 0px; box-sizing: border-box; font-family: Arial, Helvetica, sans-serif; line-height: 1.2; color: rgb(37, 37, 40); background-color: rgb(255, 255, 255);&quot; class=&quot;article__title&quot;&gt;&lt;font style=&quot;border-color: var(--border-color); font-size: 13px;&quot;&gt;• List item 4&lt;/font&gt;&lt;/h1&gt;&lt;div style=&quot;font-size: 12px;&quot;&gt;&lt;font style=&quot;border-color: var(--border-color); font-size: 15px;&quot;&gt;&lt;br&gt;&lt;/font&gt;&lt;/div&gt;&lt;/div&gt;&lt;/font&gt;&lt;/div&gt;&lt;div style=&quot;font-size: 12px;&quot;&gt;&lt;font style=&quot;border-color: var(--border-color); font-size: 15px;&quot;&gt;&lt;br&gt;&lt;/font&gt;&lt;/div&gt;&lt;/div&gt;&lt;/font&gt;&lt;/div&gt;&lt;/div&gt;&lt;div style=&quot;font-size: 13px;&quot;&gt;&lt;font style=&quot;font-size: 13px;&quot;&gt;&lt;div style=&quot;border-color: var(--border-color);&quot;&gt;&lt;div&gt;&lt;font style=&quot;border-color: var(--border-color); font-size: 13px;&quot;&gt;&lt;br&gt;&lt;/font&gt;&lt;/div&gt;&lt;/div&gt;&lt;/font&gt;&lt;/div&gt;" style="text;html=1;spacing=5;spacingTop=-20;whiteSpace=wrap;overflow=hidden;rounded=0;" parent="1" vertex="1">
          <mxGeometry x="370" y="50" width="580" height="350" as="geometry" />
        </mxCell>
        <mxCell id="XkvbFqVH8ZylM9C7yXK--1" value="" style="rounded=0;whiteSpace=wrap;html=1;" parent="1" vertex="1">
          <mxGeometry x="260" y="60" width="100" height="340" as="geometry" />
        </mxCell>
        <mxCell id="XkvbFqVH8ZylM9C7yXK--2" value="Intro" style="text;html=1;align=center;verticalAlign=middle;whiteSpace=wrap;rounded=0;" parent="1" vertex="1">
          <mxGeometry x="280" y="70" width="60" height="30" as="geometry" />
        </mxCell>
        <mxCell id="XkvbFqVH8ZylM9C7yXK--3" value="Get-Started&lt;span style=&quot;color: rgba(0, 0, 0, 0); font-family: monospace; font-size: 0px; text-align: start; text-wrap: nowrap;&quot;&gt;%3CmxGraphModel%3E%3Croot%3E%3CmxCell%20id%3D%220%22%2F%3E%3CmxCell%20id%3D%221%22%20parent%3D%220%22%2F%3E%3CmxCell%20id%3D%222%22%20value%3D%22Intro%22%20style%3D%22text%3Bhtml%3D1%3Balign%3Dcenter%3BverticalAlign%3Dmiddle%3BwhiteSpace%3Dwrap%3Brounded%3D0%3B%22%20vertex%3D%221%22%20parent%3D%221%22%3E%3CmxGeometry%20x%3D%22-80%22%20y%3D%2280%22%20width%3D%2260%22%20height%3D%2230%22%20as%3D%22geometry%22%2F%3E%3C%2FmxCell%3E%3C%2Froot%3E%3C%2FmxGraphModel%3E&lt;/span&gt;" style="text;html=1;align=center;verticalAlign=middle;whiteSpace=wrap;rounded=0;" parent="1" vertex="1">
          <mxGeometry x="280" y="110" width="60" height="30" as="geometry" />
        </mxCell>
        <mxCell id="XkvbFqVH8ZylM9C7yXK--4" value="Example1" style="text;html=1;align=center;verticalAlign=middle;whiteSpace=wrap;rounded=0;" parent="1" vertex="1">
          <mxGeometry x="280" y="150" width="60" height="30" as="geometry" />
        </mxCell>
        <mxCell id="XkvbFqVH8ZylM9C7yXK--5" value="Example2" style="text;html=1;align=center;verticalAlign=middle;whiteSpace=wrap;rounded=0;" parent="1" vertex="1">
          <mxGeometry x="280" y="190" width="60" height="30" as="geometry" />
        </mxCell>
        <mxCell id="XkvbFqVH8ZylM9C7yXK--10" value="" style="rounded=0;whiteSpace=wrap;html=1;" parent="1" vertex="1">
          <mxGeometry x="-160" y="540" width="990" height="531" as="geometry" />
        </mxCell>
        <mxCell id="XkvbFqVH8ZylM9C7yXK--11" value="&amp;nbsp;Search" style="rounded=1;whiteSpace=wrap;html=1;align=left;" parent="1" vertex="1">
          <mxGeometry x="-110" y="570" width="790" height="30" as="geometry" />
        </mxCell>
        <mxCell id="XkvbFqVH8ZylM9C7yXK--12" value="Go" style="rounded=1;whiteSpace=wrap;html=1;" parent="1" vertex="1">
          <mxGeometry x="690" y="570" width="50" height="30" as="geometry" />
        </mxCell>
        <mxCell id="XkvbFqVH8ZylM9C7yXK--13" value="" style="rounded=0;whiteSpace=wrap;html=1;" parent="1" vertex="1">
          <mxGeometry x="-110" y="660" width="850" height="390" as="geometry" />
        </mxCell>
        <mxCell id="XkvbFqVH8ZylM9C7yXK--14" value="" style="rounded=0;whiteSpace=wrap;html=1;" parent="1" vertex="1">
          <mxGeometry x="-90" y="680" width="300" height="140" as="geometry" />
        </mxCell>
        <mxCell id="XkvbFqVH8ZylM9C7yXK--15" value="Theme 1" style="rounded=0;whiteSpace=wrap;html=1;align=left;" parent="1" vertex="1">
          <mxGeometry x="-90" y="820" width="300" height="30" as="geometry" />
        </mxCell>
        <mxCell id="XkvbFqVH8ZylM9C7yXK--16" value="" style="rounded=0;whiteSpace=wrap;html=1;" parent="1" vertex="1">
          <mxGeometry x="240" y="680" width="300" height="140" as="geometry" />
        </mxCell>
        <mxCell id="XkvbFqVH8ZylM9C7yXK--17" value="Theme 2" style="rounded=0;whiteSpace=wrap;html=1;align=left;" parent="1" vertex="1">
          <mxGeometry x="240" y="820" width="300" height="30" as="geometry" />
        </mxCell>
        <mxCell id="XkvbFqVH8ZylM9C7yXK--18" value="" style="rounded=0;whiteSpace=wrap;html=1;" parent="1" vertex="1">
          <mxGeometry x="-90" y="870" width="300" height="140" as="geometry" />
        </mxCell>
        <mxCell id="XkvbFqVH8ZylM9C7yXK--19" value="Theme 3" style="rounded=0;whiteSpace=wrap;html=1;align=left;" parent="1" vertex="1">
          <mxGeometry x="-90" y="1010" width="300" height="30" as="geometry" />
        </mxCell>
        <mxCell id="XkvbFqVH8ZylM9C7yXK--20" value="" style="rounded=0;whiteSpace=wrap;html=1;" parent="1" vertex="1">
          <mxGeometry x="240" y="870" width="300" height="140" as="geometry" />
        </mxCell>
        <mxCell id="XkvbFqVH8ZylM9C7yXK--21" value="Theme 4" style="rounded=0;whiteSpace=wrap;html=1;align=left;" parent="1" vertex="1">
          <mxGeometry x="240" y="1010" width="300" height="30" as="geometry" />
        </mxCell>
        <mxCell id="XkvbFqVH8ZylM9C7yXK--22" value="Create Theme" style="rounded=1;whiteSpace=wrap;html=1;" parent="1" vertex="1">
          <mxGeometry x="580" y="1000" width="140" height="30" as="geometry" />
        </mxCell>
        <mxCell id="XkvbFqVH8ZylM9C7yXK--46" value="" style="rounded=0;whiteSpace=wrap;html=1;" parent="1" vertex="1">
          <mxGeometry x="-120" y="50" width="350" height="380" as="geometry" />
        </mxCell>
        <mxCell id="XkvbFqVH8ZylM9C7yXK--47" value="" style="endArrow=none;html=1;rounded=0;entryX=0.995;entryY=0.531;entryDx=0;entryDy=0;entryPerimeter=0;exitX=-0.015;exitY=0.529;exitDx=0;exitDy=0;exitPerimeter=0;" parent="1" source="XkvbFqVH8ZylM9C7yXK--46" target="XkvbFqVH8ZylM9C7yXK--46" edge="1">
          <mxGeometry width="50" height="50" relative="1" as="geometry">
            <mxPoint x="-5" y="250" as="sourcePoint" />
            <mxPoint x="45" y="200" as="targetPoint" />
          </mxGeometry>
        </mxCell>
        <mxCell id="XkvbFqVH8ZylM9C7yXK--7" value="Theme" style="rounded=1;whiteSpace=wrap;html=1;" parent="1" vertex="1">
          <mxGeometry x="-110" y="60" width="120" height="30" as="geometry" />
        </mxCell>
        <mxCell id="XkvbFqVH8ZylM9C7yXK--48" value="" style="rounded=0;whiteSpace=wrap;html=1;" parent="1" vertex="1">
          <mxGeometry x="-110" y="95" width="20" height="15" as="geometry" />
        </mxCell>
        <mxCell id="XkvbFqVH8ZylM9C7yXK--49" value="Generate Table of Contents" style="text;html=1;align=center;verticalAlign=middle;whiteSpace=wrap;rounded=0;" parent="1" vertex="1">
          <mxGeometry x="-80" y="87.5" width="180" height="30" as="geometry" />
        </mxCell>
        <mxCell id="XkvbFqVH8ZylM9C7yXK--52" value="+" style="rounded=1;whiteSpace=wrap;html=1;" parent="1" vertex="1">
          <mxGeometry x="180" y="390" width="30" height="20" as="geometry" />
        </mxCell>
        <mxCell id="XkvbFqVH8ZylM9C7yXK--53" value="Intro.md" style="text;html=1;align=center;verticalAlign=middle;whiteSpace=wrap;rounded=0;" parent="1" vertex="1">
          <mxGeometry x="-50" y="280" width="90" height="30" as="geometry" />
        </mxCell>
        <mxCell id="XkvbFqVH8ZylM9C7yXK--54" value="Get-Started.md" style="text;html=1;align=center;verticalAlign=middle;whiteSpace=wrap;rounded=0;" parent="1" vertex="1">
          <mxGeometry x="-45" y="320" width="90" height="30" as="geometry" />
        </mxCell>
        <mxCell id="XkvbFqVH8ZylM9C7yXK--55" value="Example1.md" style="text;html=1;align=center;verticalAlign=middle;whiteSpace=wrap;rounded=0;" parent="1" vertex="1">
          <mxGeometry x="-45" y="360" width="90" height="30" as="geometry" />
        </mxCell>
        <mxCell id="XkvbFqVH8ZylM9C7yXK--71" value="" style="rounded=0;whiteSpace=wrap;html=1;" parent="1" vertex="1">
          <mxGeometry x="-1190" y="541" width="990" height="530" as="geometry" />
        </mxCell>
        <mxCell id="XkvbFqVH8ZylM9C7yXK--56" value="Example2.md" style="text;html=1;align=center;verticalAlign=middle;whiteSpace=wrap;rounded=0;" parent="1" vertex="1">
          <mxGeometry x="-45" y="395" width="90" height="30" as="geometry" />
        </mxCell>
        <mxCell id="XkvbFqVH8ZylM9C7yXK--57" value="Explorer" style="rounded=0;whiteSpace=wrap;html=1;" parent="1" vertex="1">
          <mxGeometry x="-120" y="250" width="60" height="30" as="geometry" />
        </mxCell>
        <mxCell id="XkvbFqVH8ZylM9C7yXK--58" value="" style="rounded=0;whiteSpace=wrap;html=1;" parent="1" vertex="1">
          <mxGeometry x="-1203" width="990" height="530" as="geometry" />
        </mxCell>
        <mxCell id="XkvbFqVH8ZylM9C7yXK--59" value="Create Project" style="rounded=1;whiteSpace=wrap;html=1;" parent="1" vertex="1">
          <mxGeometry x="-360" y="20" width="100" height="40" as="geometry" />
        </mxCell>
        <mxCell id="XkvbFqVH8ZylM9C7yXK--60" value="" style="rounded=0;whiteSpace=wrap;html=1;" parent="1" vertex="1">
          <mxGeometry x="-1150" y="70" width="900" height="430" as="geometry" />
        </mxCell>
        <mxCell id="XkvbFqVH8ZylM9C7yXK--67" value="Projekt 1" style="rounded=1;whiteSpace=wrap;html=1;align=left;" parent="1" vertex="1">
          <mxGeometry x="-1140" y="87.5" width="280" height="22.5" as="geometry" />
        </mxCell>
        <mxCell id="XkvbFqVH8ZylM9C7yXK--68" value="Projekt 2&lt;span style=&quot;color: rgba(0, 0, 0, 0); font-family: monospace; font-size: 0px; text-wrap: nowrap;&quot;&gt;%3CmxGraphModel%3E%3Croot%3E%3CmxCell%20id%3D%220%22%2F%3E%3CmxCell%20id%3D%221%22%20parent%3D%220%22%2F%3E%3CmxCell%20id%3D%222%22%20value%3D%22Projekt%201%22%20style%3D%22rounded%3D1%3BwhiteSpace%3Dwrap%3Bhtml%3D1%3Balign%3Dleft%3B%22%20vertex%3D%221%22%20parent%3D%221%22%3E%3CmxGeometry%20x%3D%22-1140%22%20y%3D%2287.5%22%20width%3D%22280%22%20height%3D%2222.5%22%20as%3D%22geometry%22%2F%3E%3C%2FmxCell%3E%3C%2Froot%3E%3C%2FmxGraphModel%3E&lt;/span&gt;" style="rounded=1;whiteSpace=wrap;html=1;align=left;" parent="1" vertex="1">
          <mxGeometry x="-1140" y="127.5" width="280" height="22.5" as="geometry" />
        </mxCell>
        <mxCell id="XkvbFqVH8ZylM9C7yXK--69" value="Projekt 3" style="rounded=1;whiteSpace=wrap;html=1;align=left;" parent="1" vertex="1">
          <mxGeometry x="-1140" y="167.5" width="280" height="22.5" as="geometry" />
        </mxCell>
        <mxCell id="XkvbFqVH8ZylM9C7yXK--70" value="Projekt 4" style="rounded=1;whiteSpace=wrap;html=1;align=left;" parent="1" vertex="1">
          <mxGeometry x="-1140" y="213.75" width="280" height="22.5" as="geometry" />
        </mxCell>
        <mxCell id="XkvbFqVH8ZylM9C7yXK--72" value="Generate" style="rounded=1;whiteSpace=wrap;html=1;" parent="1" vertex="1">
          <mxGeometry x="-400" y="981" width="100" height="30" as="geometry" />
        </mxCell>
        <mxCell id="XkvbFqVH8ZylM9C7yXK--73" value="" style="rounded=0;whiteSpace=wrap;html=1;" parent="1" vertex="1">
          <mxGeometry x="-790" y="591" width="490" height="380" as="geometry" />
        </mxCell>
        <mxCell id="XkvbFqVH8ZylM9C7yXK--74" value="" style="rounded=0;whiteSpace=wrap;html=1;" parent="1" vertex="1">
          <mxGeometry x="-770" y="601" width="100" height="340" as="geometry" />
        </mxCell>
        <mxCell id="XkvbFqVH8ZylM9C7yXK--75" value="Intro" style="text;html=1;align=center;verticalAlign=middle;whiteSpace=wrap;rounded=0;" parent="1" vertex="1">
          <mxGeometry x="-750" y="611" width="60" height="30" as="geometry" />
        </mxCell>
        <mxCell id="XkvbFqVH8ZylM9C7yXK--76" value="Get-Started&lt;span style=&quot;color: rgba(0, 0, 0, 0); font-family: monospace; font-size: 0px; text-align: start; text-wrap: nowrap;&quot;&gt;%3CmxGraphModel%3E%3Croot%3E%3CmxCell%20id%3D%220%22%2F%3E%3CmxCell%20id%3D%221%22%20parent%3D%220%22%2F%3E%3CmxCell%20id%3D%222%22%20value%3D%22Intro%22%20style%3D%22text%3Bhtml%3D1%3Balign%3Dcenter%3BverticalAlign%3Dmiddle%3BwhiteSpace%3Dwrap%3Brounded%3D0%3B%22%20vertex%3D%221%22%20parent%3D%221%22%3E%3CmxGeometry%20x%3D%22-80%22%20y%3D%2280%22%20width%3D%2260%22%20height%3D%2230%22%20as%3D%22geometry%22%2F%3E%3C%2FmxCell%3E%3C%2Froot%3E%3C%2FmxGraphModel%3E&lt;/span&gt;" style="text;html=1;align=center;verticalAlign=middle;whiteSpace=wrap;rounded=0;" parent="1" vertex="1">
          <mxGeometry x="-750" y="651" width="60" height="30" as="geometry" />
        </mxCell>
        <mxCell id="XkvbFqVH8ZylM9C7yXK--77" value="Example1" style="text;html=1;align=center;verticalAlign=middle;whiteSpace=wrap;rounded=0;" parent="1" vertex="1">
          <mxGeometry x="-750" y="691" width="60" height="30" as="geometry" />
        </mxCell>
        <mxCell id="XkvbFqVH8ZylM9C7yXK--78" value="Example2" style="text;html=1;align=center;verticalAlign=middle;whiteSpace=wrap;rounded=0;" parent="1" vertex="1">
          <mxGeometry x="-750" y="731" width="60" height="30" as="geometry" />
        </mxCell>
        <mxCell id="XkvbFqVH8ZylM9C7yXK--108" value="" style="rounded=0;whiteSpace=wrap;html=1;" parent="1" vertex="1">
          <mxGeometry x="-1147" y="606" width="340" height="370" as="geometry" />
        </mxCell>
        <mxCell id="XkvbFqVH8ZylM9C7yXK--90" value="Accent Color" style="text;html=1;align=center;verticalAlign=middle;whiteSpace=wrap;rounded=0;" parent="1" vertex="1">
          <mxGeometry x="-1212" y="664.5" width="270" height="31" as="geometry" />
        </mxCell>
        <mxCell id="XkvbFqVH8ZylM9C7yXK--91" value="Primary Color" style="text;html=1;align=center;verticalAlign=middle;whiteSpace=wrap;rounded=0;" parent="1" vertex="1">
          <mxGeometry x="-1212" y="624.5" width="270" height="31" as="geometry" />
        </mxCell>
        <mxCell id="XkvbFqVH8ZylM9C7yXK--92" value="Secondary Color" style="text;html=1;align=center;verticalAlign=middle;whiteSpace=wrap;rounded=0;" parent="1" vertex="1">
          <mxGeometry x="-1212" y="704.5" width="270" height="31" as="geometry" />
        </mxCell>
        <mxCell id="XkvbFqVH8ZylM9C7yXK--93" value="Page Style" style="text;html=1;align=center;verticalAlign=middle;whiteSpace=wrap;rounded=0;" parent="1" vertex="1">
          <mxGeometry x="-1212" y="744.5" width="270" height="31" as="geometry" />
        </mxCell>
        <mxCell id="XkvbFqVH8ZylM9C7yXK--94" value="Rounded" style="rounded=0;whiteSpace=wrap;html=1;" parent="1" vertex="1">
          <mxGeometry x="-942" y="745.5" width="120" height="31" as="geometry" />
        </mxCell>
        <mxCell id="XkvbFqVH8ZylM9C7yXK--95" value="" style="rounded=0;whiteSpace=wrap;html=1;fillColor=#ffe6cc;strokeColor=#d79b00;" parent="1" vertex="1">
          <mxGeometry x="-942" y="625.5" width="120" height="31" as="geometry" />
        </mxCell>
        <mxCell id="XkvbFqVH8ZylM9C7yXK--96" value="" style="rounded=0;whiteSpace=wrap;html=1;fillColor=#dae8fc;strokeColor=#6c8ebf;" parent="1" vertex="1">
          <mxGeometry x="-942" y="665.5" width="120" height="31" as="geometry" />
        </mxCell>
        <mxCell id="XkvbFqVH8ZylM9C7yXK--97" value="" style="rounded=0;whiteSpace=wrap;html=1;fillColor=#d5e8d4;strokeColor=#82b366;" parent="1" vertex="1">
          <mxGeometry x="-942" y="705.5" width="120" height="31" as="geometry" />
        </mxCell>
        <mxCell id="XkvbFqVH8ZylM9C7yXK--98" value="Font Family" style="text;html=1;align=center;verticalAlign=middle;whiteSpace=wrap;rounded=0;" parent="1" vertex="1">
          <mxGeometry x="-1212" y="783.5" width="270" height="31" as="geometry" />
        </mxCell>
        <mxCell id="XkvbFqVH8ZylM9C7yXK--99" value="Line Spacing" style="text;html=1;align=center;verticalAlign=middle;whiteSpace=wrap;rounded=0;" parent="1" vertex="1">
          <mxGeometry x="-1212" y="824.5" width="270" height="31" as="geometry" />
        </mxCell>
        <mxCell id="XkvbFqVH8ZylM9C7yXK--100" value="Arial" style="rounded=0;whiteSpace=wrap;html=1;" parent="1" vertex="1">
          <mxGeometry x="-942" y="785.5" width="120" height="31" as="geometry" />
        </mxCell>
        <mxCell id="XkvbFqVH8ZylM9C7yXK--101" value="12px" style="rounded=0;whiteSpace=wrap;html=1;" parent="1" vertex="1">
          <mxGeometry x="-942" y="825.5" width="120" height="31" as="geometry" />
        </mxCell>
        <mxCell id="XkvbFqVH8ZylM9C7yXK--102" value="Header Style" style="text;html=1;align=center;verticalAlign=middle;whiteSpace=wrap;rounded=0;" parent="1" vertex="1">
          <mxGeometry x="-1212" y="864.5" width="270" height="31" as="geometry" />
        </mxCell>
        <mxCell id="XkvbFqVH8ZylM9C7yXK--103" value="Open Header Style" style="rounded=1;whiteSpace=wrap;html=1;" parent="1" vertex="1">
          <mxGeometry x="-942" y="865.5" width="120" height="30" as="geometry" />
        </mxCell>
        <mxCell id="XkvbFqVH8ZylM9C7yXK--104" value="Paragraph Style" style="text;html=1;align=center;verticalAlign=middle;whiteSpace=wrap;rounded=0;" parent="1" vertex="1">
          <mxGeometry x="-1212" y="904.5" width="270" height="31" as="geometry" />
        </mxCell>
        <mxCell id="XkvbFqVH8ZylM9C7yXK--105" value="Open Paragraph Style" style="rounded=1;whiteSpace=wrap;html=1;" parent="1" vertex="1">
          <mxGeometry x="-942" y="905.5" width="120" height="30" as="geometry" />
        </mxCell>
        <mxCell id="XkvbFqVH8ZylM9C7yXK--109" value="&lt;h1&gt;Lorem Ipsum Dolor Sit Amet&lt;/h1&gt;&lt;div&gt;Lorem Ipsum&lt;/div&gt;&lt;div&gt;Lorem&lt;/div&gt;&lt;div&gt;Lorem&lt;/div&gt;&lt;div&gt;Ipsum&lt;/div&gt;&lt;div&gt;&lt;br&gt;&lt;/div&gt;&lt;div&gt;&lt;font size=&quot;1&quot; style=&quot;&quot;&gt;&lt;b style=&quot;font-size: 18px;&quot;&gt;Ipsum Dolor Sit Amet&lt;/b&gt;&lt;/font&gt;&lt;/div&gt;&lt;div style=&quot;font-size: 13px;&quot;&gt;&lt;font style=&quot;font-size: 13px;&quot;&gt;&lt;b style=&quot;&quot;&gt;&lt;br&gt;&lt;/b&gt;&lt;/font&gt;&lt;/div&gt;&lt;div style=&quot;&quot;&gt;&lt;font size=&quot;1&quot; style=&quot;&quot;&gt;&lt;b style=&quot;font-size: 24px;&quot;&gt;A B C D E&lt;/b&gt;&lt;/font&gt;&lt;/div&gt;&lt;div style=&quot;font-size: 13px;&quot;&gt;&lt;h1 style=&quot;padding: 0px 0px 20px; margin: 0px; outline: 0px; box-sizing: border-box; font-family: Arial, Helvetica, sans-serif; line-height: 1.2; color: rgb(37, 37, 40); background-color: rgb(255, 255, 255);&quot; class=&quot;article__title&quot;&gt;&lt;font style=&quot;font-size: 13px;&quot;&gt;• List item 1&lt;/font&gt;&lt;/h1&gt;&lt;h1 style=&quot;padding: 0px 0px 20px; margin: 0px; outline: 0px; box-sizing: border-box; font-family: Arial, Helvetica, sans-serif; line-height: 1.2; color: rgb(37, 37, 40); background-color: rgb(255, 255, 255);&quot; class=&quot;article__title&quot;&gt;&lt;font style=&quot;font-size: 13px;&quot;&gt;• List item 2&lt;/font&gt;&lt;/h1&gt;&lt;div style=&quot;&quot;&gt;&lt;font style=&quot;font-size: 13px;&quot;&gt;&lt;div style=&quot;border-color: var(--border-color);&quot;&gt;&lt;h1 style=&quot;border-color: var(--border-color); padding: 0px 0px 20px; margin: 0px; outline: 0px; box-sizing: border-box; font-family: Arial, Helvetica, sans-serif; line-height: 1.2; color: rgb(37, 37, 40); background-color: rgb(255, 255, 255);&quot; class=&quot;article__title&quot;&gt;&lt;font style=&quot;border-color: var(--border-color); font-size: 13px;&quot;&gt;• List item 3&lt;/font&gt;&lt;/h1&gt;&lt;div style=&quot;&quot;&gt;&lt;font style=&quot;border-color: var(--border-color); font-size: 13px;&quot;&gt;&lt;div style=&quot;border-color: var(--border-color);&quot;&gt;&lt;h1 style=&quot;border-color: var(--border-color); padding: 0px 0px 20px; margin: 0px; outline: 0px; box-sizing: border-box; font-family: Arial, Helvetica, sans-serif; line-height: 1.2; color: rgb(37, 37, 40); background-color: rgb(255, 255, 255);&quot; class=&quot;article__title&quot;&gt;&lt;font style=&quot;border-color: var(--border-color); font-size: 13px;&quot;&gt;• List item 4&lt;/font&gt;&lt;/h1&gt;&lt;div style=&quot;font-size: 12px;&quot;&gt;&lt;font style=&quot;border-color: var(--border-color); font-size: 15px;&quot;&gt;&lt;br&gt;&lt;/font&gt;&lt;/div&gt;&lt;/div&gt;&lt;/font&gt;&lt;/div&gt;&lt;div style=&quot;font-size: 12px;&quot;&gt;&lt;font style=&quot;border-color: var(--border-color); font-size: 15px;&quot;&gt;&lt;br&gt;&lt;/font&gt;&lt;/div&gt;&lt;/div&gt;&lt;/font&gt;&lt;/div&gt;&lt;/div&gt;&lt;div style=&quot;font-size: 13px;&quot;&gt;&lt;font style=&quot;font-size: 13px;&quot;&gt;&lt;div style=&quot;border-color: var(--border-color);&quot;&gt;&lt;div&gt;&lt;font style=&quot;border-color: var(--border-color); font-size: 13px;&quot;&gt;&lt;br&gt;&lt;/font&gt;&lt;/div&gt;&lt;/div&gt;&lt;/font&gt;&lt;/div&gt;" style="text;html=1;spacing=5;spacingTop=-20;whiteSpace=wrap;overflow=hidden;rounded=0;" parent="1" vertex="1">
          <mxGeometry x="-657" y="606" width="340" height="350" as="geometry" />
        </mxCell>
        <mxCell id="XkvbFqVH8ZylM9C7yXK--110" value="Save Theme" style="rounded=1;whiteSpace=wrap;html=1;" parent="1" vertex="1">
          <mxGeometry x="-977" y="1001" width="105" height="30" as="geometry" />
        </mxCell>
        <mxCell id="XkvbFqVH8ZylM9C7yXK--111" value="Load Theme" style="rounded=1;whiteSpace=wrap;html=1;" parent="1" vertex="1">
          <mxGeometry x="-1094" y="1001" width="105" height="30" as="geometry" />
        </mxCell>
        <mxCell id="XkvbFqVH8ZylM9C7yXK--112" value="" style="rounded=0;whiteSpace=wrap;html=1;" parent="1" vertex="1">
          <mxGeometry x="-160" y="1110" width="370" height="210" as="geometry" />
        </mxCell>
        <mxCell id="XkvbFqVH8ZylM9C7yXK--114" value="Publish" style="text;html=1;align=center;verticalAlign=middle;whiteSpace=wrap;rounded=0;" parent="1" vertex="1">
          <mxGeometry x="-130" y="1170" width="110" height="30" as="geometry" />
        </mxCell>
        <mxCell id="XkvbFqVH8ZylM9C7yXK--115" value="" style="rounded=0;whiteSpace=wrap;html=1;" parent="1" vertex="1">
          <mxGeometry x="-40" y="1175" width="20" height="20" as="geometry" />
        </mxCell>
        <mxCell id="XkvbFqVH8ZylM9C7yXK--116" value="Name" style="text;html=1;align=center;verticalAlign=middle;whiteSpace=wrap;rounded=0;" parent="1" vertex="1">
          <mxGeometry x="-100" y="1130" width="60" height="30" as="geometry" />
        </mxCell>
        <mxCell id="XkvbFqVH8ZylM9C7yXK--117" value="" style="rounded=0;whiteSpace=wrap;html=1;" parent="1" vertex="1">
          <mxGeometry x="-40" y="1130" width="120" height="29" as="geometry" />
        </mxCell>
        <mxCell id="XkvbFqVH8ZylM9C7yXK--119" value="" style="rounded=0;whiteSpace=wrap;html=1;" parent="1" vertex="1">
          <mxGeometry x="45" y="1240" width="120" height="60" as="geometry" />
        </mxCell>
        <mxCell id="XkvbFqVH8ZylM9C7yXK--120" value="Save" style="text;html=1;align=center;verticalAlign=middle;whiteSpace=wrap;rounded=0;" parent="1" vertex="1">
          <mxGeometry x="75" y="1255" width="60" height="30" as="geometry" />
        </mxCell>
        <mxCell id="XkvbFqVH8ZylM9C7yXK--123" value="" style="rounded=0;whiteSpace=wrap;html=1;" parent="1" vertex="1">
          <mxGeometry x="-90" y="610" width="30" height="31" as="geometry" />
        </mxCell>
        <mxCell id="XkvbFqVH8ZylM9C7yXK--124" value="" style="rounded=0;whiteSpace=wrap;html=1;" parent="1" vertex="1">
          <mxGeometry x="70" y="610" width="30" height="31" as="geometry" />
        </mxCell>
        <mxCell id="XkvbFqVH8ZylM9C7yXK--125" value="Public Themes" style="text;html=1;align=center;verticalAlign=middle;whiteSpace=wrap;rounded=0;" parent="1" vertex="1">
          <mxGeometry x="-45" y="611" width="85" height="30" as="geometry" />
        </mxCell>
        <mxCell id="XkvbFqVH8ZylM9C7yXK--129" value="Own Themes" style="text;html=1;align=center;verticalAlign=middle;whiteSpace=wrap;rounded=0;" parent="1" vertex="1">
          <mxGeometry x="120" y="611" width="85" height="30" as="geometry" />
        </mxCell>
        <mxCell id="XkvbFqVH8ZylM9C7yXK--132" value="Themes" style="rounded=0;whiteSpace=wrap;html=1;" parent="1" vertex="1">
          <mxGeometry x="-1150" y="20" width="110" height="40" as="geometry" />
        </mxCell>
      </root>
    </mxGraphModel>
  </diagram>
</mxfile>
